<?xml version="1.0" encoding="utf-8"?>
<!-- Generator: Adobe Illustrator 25.1.0, SVG Export Plug-In . SVG Version: 6.00 Build 0)  -->
<svg version="1.1" id="Capa_1" xmlns="http://www.w3.org/2000/svg" xmlns:xlink="http://www.w3.org/1999/xlink" x="0px" y="0px"
	 viewBox="0 0 305 305" style="enable-background:new 0 0 305 305;" xml:space="preserve">
<style type="text/css">
	.st0{fill:#222220;}
	.st1{font-family:'NotoSansCJKkr-Bold-KSCpc-EUC-H';}
	.st2{font-size:14px;}
</style>
<g>
	<path class="st0" d="M305,173.7c0-41.7-16.8-79.5-44-107c-0.2-0.3-0.4-0.6-0.7-0.8c-0.3-0.3-0.5-0.5-0.8-0.7
		c-27.6-27.2-65.4-44-107-44S73,38,45.5,65.2c-0.3,0.2-0.6,0.4-0.8,0.7c-0.3,0.3-0.5,0.5-0.7,0.8c-27.2,27.6-44,65.4-44,107
		c0,40.7,15.9,79,44.7,107.8l0,0l0,0l0,0c1.5,1.5,3.4,2.2,5.3,2.2c1.9,0,3.8-0.7,5.3-2.2c0.1-0.1,0.2-0.3,0.4-0.4L78.8,258
		c2.9-2.9,2.9-7.7,0-10.6c-2.9-2.9-7.7-2.9-10.6,0l-18,18c-21-23.4-33.2-52.9-34.9-84.3h25.5c4.1,0,7.5-3.4,7.5-7.5
		s-3.4-7.5-7.5-7.5H15.2C17,134,29.9,104.6,50.2,82l18,18c1.5,1.5,3.4,2.2,5.3,2.2s3.8-0.7,5.3-2.2c2.9-2.9,2.9-7.7,0-10.6l-18-18
		c22.6-20.3,52-33.2,84.2-35v25.5c0,4.1,3.4,7.5,7.5,7.5s7.5-3.4,7.5-7.5V36.4c32.3,1.7,61.6,14.7,84.2,35l-18,18
		c-2.9,2.9-2.9,7.7,0,10.6c1.5,1.5,3.4,2.2,5.3,2.2s3.8-0.7,5.3-2.2l18-18c20.3,22.6,33.2,52,35,84.2h-25.5c-4.1,0-7.5,3.4-7.5,7.5
		s3.4,7.5,7.5,7.5h25.5c-1.7,31.4-13.9,60.9-34.9,84.3l-18-18c-2.9-2.9-7.7-2.9-10.6,0c-2.9,2.9-2.9,7.7,0,10.6l23.5,23.5
		c1.5,1.5,3.4,2.2,5.3,2.2c1,0,1.9-0.2,2.8-0.5c0.9-0.4,1.7-0.9,2.5-1.6C289.1,252.8,305,214.5,305,173.7z"/>
	<path class="st0" d="M237.1,213.3c1.9-3.6,0.6-8.2-3.1-10.2l-51.5-27.3c0.2-1,0.4-2,0.5-3c1.1-10.5-3.7-20.6-12.6-26.4
		c-9.2-6-21.1-6-31.6,0.1c-1.1,0.6-2.1,1.5-3,2.4c-4.8,5.3-7.8,11.5-8.4,18c-1.1,10.5,3.7,20.6,12.6,26.4c9.2,6,21.1,6,31.6-0.1
		c1.1-0.6,2.1-1.5,3-2.4c0.5-0.5,0.9-1,1.3-1.6l51.1,27C230.7,218.3,235.1,216.9,237.1,213.3z M148.2,180.7
		c-4.1-2.7-6.4-7.3-5.9-12.2c0.3-3.2,1.8-6.2,4.3-9.2c5.5-3,11.2-3.1,15.5-0.3c4.1,2.7,6.4,7.3,5.9,12.2c-0.2,1.6-0.6,3.1-1.3,4.6
		c0,0.1,0,0.1-0.1,0.1c-0.1,0.2-0.1,0.3-0.3,0.5c-0.6,1.3-1.6,2.7-2.7,4C158.2,183.5,152.6,183.6,148.2,180.7z"/>
</g>
<text transform="matrix(1 0 0 1 206.7637 173.725)" class="st1 st2">4.5GHz</text>
<text transform="matrix(1 0 0 1 182.2908 246.6161)" class="st1 st2">5.0GHz</text>
<text transform="matrix(1 0 0 1 196.1357 114.3852)" class="st1 st2">4.0GHz</text>
<text transform="matrix(1 0 0 1 134.3933 84.1577)" class="st1 st2">3.5GHz</text>
</svg>
